<svg xmlns="http://www.w3.org/2000/svg" width="980" height="560" viewBox="0 0 980 560">
<rect width="100%" height="100%" fill="white"/>
<style>text{font-family:Arial,Helvetica,sans-serif;fill:#0f172a}.axis{stroke:#334155;stroke-width:1}.grid{stroke:#e2e8f0;stroke-width:1}.label{font-size:12px}.title{font-size:20px;font-weight:700}.subtitle{font-size:12px;fill:#475569}.tick{font-size:11px;fill:#475569}</style>
<text class="title" x="90" y="34">Synchronization Strategy Comparison</text>
<text class="subtitle" x="90" y="55">nosync is fast-looking but invalid; reduce balances correctness and performance</text>
<line class="grid" x1="90" y1="440.0" x2="940" y2="440.0"/>
<text class="tick" x="82" y="444.0" text-anchor="end">0.00</text>
<line class="grid" x1="90" y1="367.0" x2="940" y2="367.0"/>
<text class="tick" x="82" y="371.0" text-anchor="end">0.79</text>
<line class="grid" x1="90" y1="294.0" x2="940" y2="294.0"/>
<text class="tick" x="82" y="298.0" text-anchor="end">1.58</text>
<line class="grid" x1="90" y1="221.0" x2="940" y2="221.0"/>
<text class="tick" x="82" y="225.0" text-anchor="end">2.37</text>
<line class="grid" x1="90" y1="148.0" x2="940" y2="148.0"/>
<text class="tick" x="82" y="152.0" text-anchor="end">3.15</text>
<line class="grid" x1="90" y1="75.0" x2="940" y2="75.0"/>
<text class="tick" x="82" y="79.0" text-anchor="end">3.94</text>
<line class="axis" x1="90" y1="75" x2="90" y2="440"/>
<line class="axis" x1="90" y1="440" x2="940" y2="440"/>
<text class="label" x="20" y="257.5" transform="rotate(-90 20,257.5)">seconds / ratio</text>
<text class="tick" x="231.7" y="488" text-anchor="middle">nosync</text>
<rect x="102.0" y="436.3" width="125.7" height="3.7" rx="2" fill="#ea580c"/>
<text class="tick" x="164.8" y="431.3" text-anchor="middle">0.04</text>
<rect x="235.7" y="212.0" width="125.7" height="228.0" rx="2" fill="#2563eb"/>
<text class="tick" x="298.5" y="207.0" text-anchor="middle">2.46</text>
<text class="tick" x="515.0" y="488" text-anchor="middle">mutex</text>
<rect x="385.3" y="427.7" width="125.7" height="12.3" rx="2" fill="#ea580c"/>
<text class="tick" x="448.2" y="422.7" text-anchor="middle">0.13</text>
<rect x="519.0" y="370.5" width="125.7" height="69.5" rx="2" fill="#2563eb"/>
<text class="tick" x="581.8" y="365.5" text-anchor="middle">0.75</text>
<text class="tick" x="798.3" y="488" text-anchor="middle">reduce</text>
<rect x="668.7" y="437.3" width="125.7" height="2.7" rx="2" fill="#ea580c"/>
<text class="tick" x="731.5" y="432.3" text-anchor="middle">0.03</text>
<rect x="802.3" y="122.6" width="125.7" height="317.4" rx="2" fill="#2563eb"/>
<text class="tick" x="865.2" y="117.6" text-anchor="middle">3.43</text>
<rect x="90" y="513" width="12" height="12" fill="#ea580c"/>
<text class="label" x="108" y="524">avg time sec</text>
<rect x="250" y="513" width="12" height="12" fill="#2563eb"/>
<text class="label" x="268" y="524">speedup</text>
</svg>